<?xml version="1.0" standalone="no"?><!DOCTYPE svg PUBLIC "-//W3C//DTD SVG 1.1//EN" "http://www.w3.org/Graphics/SVG/1.1/DTD/svg11.dtd"><svg t="1741847806902" class="icon" viewBox="0 0 1024 1024" version="1.1" xmlns="http://www.w3.org/2000/svg" p-id="12559" xmlns:xlink="http://www.w3.org/1999/xlink" width="200" height="200"><path d="M94.71273 256.796157c2.783539 0 5.509387 0.749969 7.889097 2.177795L511.998355 504.213808v491.157568a15.388787 15.388787 0 0 1-23.277884 13.210992L105.515168 779.048593A53.911232 53.911232 0 0 1 79.323944 732.795699V272.199366c0-8.509263 6.893946-15.403209 15.388786-15.403209z m22.49907 40.094495c-7.398732 0-13.441752 5.783415-13.831159 13.052345l-0.014423 0.764392v411.646434c0 16.470473 8.408306 31.787147 22.253888 40.656972l1.153798 0.706702 340.183044 204.943446a13.874426 13.874426 0 0 0 20.984709-11.062043l0.014423-0.764391V517.929586L124.36535 298.880955a13.874426 13.874426 0 0 0-7.15355-1.97588z" fill="#3367FF" p-id="12560"></path><path d="M942.494971 264.295847c1.427826 2.379709 2.177795 5.119981 2.177795 7.903519v460.596333c0 18.951139-9.951511 36.51772-26.191225 46.252894L535.276238 1008.567946A15.374364 15.374364 0 0 1 511.998355 995.342532V504.213808l409.396527-245.211012a15.374364 15.374364 0 0 1 21.100089 5.307473z m-23.854782 39.272414a13.874426 13.874426 0 0 0-18.316551-5.062291l-0.692279 0.389407-363.59073 219.034209v438.904923a13.874426 13.874426 0 0 0 20.321275 12.201418l0.677857-0.374984 340.197467-204.943446a48.300887 48.300887 0 0 0 23.37884-40.022383l0.014423-1.341291V310.707389a13.773469 13.773469 0 0 0-1.990302-7.139128z" fill="#FFC833" p-id="12561"></path><path d="M540.151036 7.633386l380.609257 227.399248a15.403209 15.403209 0 0 1-0.028845 26.450829L511.378188 505.367606 102.082618 261.541153a15.403209 15.403209 0 0 1 0.028845-26.479674L484.970626 7.561274a53.896809 53.896809 0 0 1 55.18041 0.072112z m337.284126 229.072256L536.098319 30.940114a47.73841 47.73841 0 0 0-48.127817-0.721124l-1.240333 0.721124L145.378904 236.705642a14.047496 14.047496 0 0 0-0.663434 23.523065l0.663434 0.432675 366.042551 220.663949 366.013707-220.663949a14.047496 14.047496 0 0 0 0.663434-23.523066l-0.663434-0.432674L536.098319 30.940114l341.336843 205.765528z" fill="#FF6702" p-id="12562"></path><path d="M94.71273 256.796157c2.783539 0 5.509387 0.749969 7.889097 2.177795L511.998355 504.213808v491.157568a15.388787 15.388787 0 0 1-23.277884 13.210992L105.515168 779.048593A53.911232 53.911232 0 0 1 79.323944 732.795699V272.199366c0-8.509263 6.893946-15.403209 15.388786-15.403209z" fill="#3367FF" p-id="12563"></path><path d="M942.494971 264.295847c1.427826 2.379709 2.177795 5.119981 2.177795 7.903519v460.596333c0 18.951139-9.951511 36.51772-26.191225 46.252894L535.276238 1008.567946A15.374364 15.374364 0 0 1 511.998355 995.342532V504.213808l409.396527-245.211012a15.374364 15.374364 0 0 1 21.100089 5.307473z" fill="#FFC833" p-id="12564"></path><path d="M540.151036 7.633386l380.609257 227.399248a15.403209 15.403209 0 0 1-0.028845 26.450829L511.378188 505.367606 102.082618 261.541153a15.403209 15.403209 0 0 1 0.028845-26.479674L484.970626 7.561274a53.896809 53.896809 0 0 1 55.18041 0.072112z" fill="#FF6702" p-id="12565"></path><path d="M918.640189 303.568261a13.773469 13.773469 0 0 1 1.874922 5.264205l0.11538 1.874923v412.987725a48.286464 48.286464 0 0 1-20.811639 38.349375l-2.596047 1.673008-340.183044 204.943446-0.677857 0.374984a13.874426 13.874426 0 0 1-20.191472-10.326496l-0.144225-1.874922V517.929586l363.59073-219.034209 0.692279-0.389407a13.874426 13.874426 0 0 1 18.330973 5.047868z m-801.428389-6.663186c2.523934 0 4.990178 0.677857 7.15355 1.97588l363.59073 219.048631v438.904923l-0.014423 0.764391a13.831159 13.831159 0 0 1-20.984709 11.062043L126.759482 763.717497l-1.139376-0.721124a48.286464 48.286464 0 0 1-22.253888-40.64255V310.707389l0.014423-0.764392a13.831159 13.831159 0 0 1 13.831159-13.037922z m416.074136-267.537011l2.812383 1.586473 341.336843 205.751105 0.663434 0.432674a14.047496 14.047496 0 0 1 0.749969 22.55676l-1.413403 0.966306-366.028129 220.663949-366.028129-220.663949-0.649012-0.432675a14.047496 14.047496 0 0 1-0.764391-22.542337l1.413403-0.980728L486.730169 30.940114l1.240333-0.721124a47.73841 47.73841 0 0 1 45.315434-0.850926z" fill="#FFFFFF" p-id="12566"></path><path d="M772.208745 312.394819L529.550513 167.838298a34.282236 34.282236 0 0 0-34.224546-0.504787l-0.865349 0.504787L251.773541 312.394819a9.807287 9.807287 0 0 0-0.475941 16.528162l0.475941 0.28845L511.998355 484.28194l260.21039-155.041664a9.807287 9.807287 0 0 0 0.475942-16.528163l-0.475942-0.288449-242.658232-144.585366L772.208745 312.394819z" fill="#FF6702" p-id="12567"></path><path d="M255.696456 374.050922a8.696756 8.696756 0 0 0-8.682333 8.220814l-0.014423 0.475942V642.09272c0 10.384186 5.278628 20.018403 13.989806 25.614325l0.706702 0.432674 213.654624 129.124467a8.696756 8.696756 0 0 0 13.182147-6.966058l0.014423-0.475942V513.29997l-228.351132-137.994292a8.696756 8.696756 0 0 0-4.499814-1.254756z" fill="#3367FF" p-id="12568"></path><path d="M775.742253 378.247864a8.696756 8.696756 0 0 0-11.509139-3.172946l-0.432675 0.23076-228.351131 137.994292v276.522216a8.696756 8.696756 0 0 0 12.763895 7.687182l0.432674-0.245182 213.654624-129.110044a30.431434 30.431434 0 0 0 14.682085-25.224918l0.014423-0.836504V382.747678c0-1.586473-0.432674-3.144101-1.254756-4.499814z" fill="#FFC833" p-id="12569"></path></svg>